<svg xmlns="http://www.w3.org/2000/svg" xml:space="preserve" width="655.359" height="655.359" style="shape-rendering:geometricPrecision;text-rendering:geometricPrecision;image-rendering:optimizeQuality;fill-rule:evenodd;clip-rule:evenodd" viewBox="0 0 6.827 6.827"><defs><style>.fil1{fill:#fffffe;fill-rule:nonzero}</style></defs><g id="Layer_x0020_1"><rect width="6.827" height="6.827" rx=".853" ry=".853" style="fill:#03a9f4"/><g id="_486077928"><path id="_491178648" class="fil1" d="M5.913 3.576c.04.042.062.087.062.135 0 .17-.276.307-.721.39-.399.075-.947.121-1.55.121a8.869 8.869 0 0 1-1.552-.12c-.445-.084-.72-.22-.72-.391 0-.048.02-.093.061-.135.187.13.483.194.64.223.234.044.473.071.71.09a10.868 10.868 0 0 0 1.721 0c.237-.019.476-.046.71-.09.156-.03.452-.092.639-.223z"/><path id="_491178768" class="fil1" d="m5.973 3.935.001.278.001.143c0 .17-.276.307-.721.39-.399.075-.947.121-1.55.121a8.869 8.869 0 0 1-1.552-.12c-.445-.084-.72-.22-.72-.391v-.423c.175.166.525.24.7.274.235.043.474.07.71.09.287.022.574.032.861.032.287 0 .575-.01.86-.033.238-.018.477-.046.71-.09.175-.032.524-.107.7-.271z"/><path id="_486078144" class="fil1" d="M5.395 4.827v.009c0 .17-.275.307-.72.39-.4.075-.948.121-1.551.121a8.869 8.869 0 0 1-1.551-.12c-.446-.084-.721-.22-.721-.391 0-.142.19-.26.51-.344.129.226.567.321.77.36.235.043.474.07.71.09.287.022.574.032.861.032.287 0 .575-.01.86-.033a6.802 6.802 0 0 0 .832-.114z"/><path id="_486078216" class="fil1" d="M5.394 5.06v.278c.001.142.002.053.002.143 0 .17-.276.307-.722.39-.398.075-.947.121-1.55.121a8.869 8.869 0 0 1-1.551-.12c-.446-.084-.721-.22-.721-.391v-.423c.176.166.526.24.701.274.234.043.473.07.71.09.286.022.574.032.86.032.288 0 .575-.01.861-.033.237-.018.476-.046.71-.09.175-.032.523-.107.7-.271z"/><path id="_486077544" class="fil1" d="M5.313 2.28c.41.084.662.216.662.379 0 .17-.276.307-.721.39-.399.075-.947.121-1.55.121a8.869 8.869 0 0 1-1.552-.12c-.445-.084-.72-.22-.72-.391 0-.064.037-.122.108-.175l.017.003c.233.044.472.07.71.09.285.022.573.032.86.032.287 0 .574-.01.86-.032.237-.02.476-.046.71-.09.15-.028.429-.088.616-.208zm.66.603.001.278.001.142c0 .171-.276.308-.721.391-.399.075-.947.121-1.55.121a8.869 8.869 0 0 1-1.552-.12c-.445-.084-.72-.22-.72-.392v-.422c.175.166.525.24.7.274.235.043.474.07.71.09.287.022.574.032.861.032.287 0 .575-.01.86-.033.238-.019.477-.046.71-.09.175-.032.524-.107.7-.271z"/><path id="_486077976" class="fil1" d="M3.127.834c.603 0 1.152.047 1.55.121.446.084.722.22.722.391 0 .17-.276.308-.721.391-.4.075-.948.12-1.551.12a8.869 8.869 0 0 1-1.55-.12c-.446-.083-.722-.22-.722-.39 0-.172.276-.308.721-.392.399-.074.947-.12 1.55-.12zm2.27.736.001.278v.143c0 .17-.275.308-.72.39-.4.076-.948.122-1.551.122a8.869 8.869 0 0 1-1.55-.121c-.446-.083-.722-.22-.722-.391v-.422c.176.165.526.24.702.273.233.044.472.071.71.09a10.868 10.868 0 0 0 1.721 0c.236-.019.475-.046.71-.09.174-.033.523-.108.7-.272z"/></g></g></svg>